<svg width="200" height="200" viewBox="0 0 200 200" fill="none" xmlns="http://www.w3.org/2000/svg">
<path d="M100 200C44.8276 200 0 155.172 0 100C0 44.8276 44.8276 0 100 0C155.172 0 200 44.8276 200 100C200 155.172 155.172 200 100 200ZM100 5.51724C47.931 5.51724 5.51724 47.931 5.51724 100C5.51724 152.069 47.931 194.483 100 194.483C152.069 194.483 194.483 152.069 194.483 100C194.483 47.931 152.069 5.51724 100 5.51724Z" fill="#1C272B"/>
<path d="M51.5863 160.483C51.5863 160.138 51.5173 159.793 51.3104 159.448C51.1035 159.104 50.8966 158.828 50.6207 158.621C50.4828 158.483 50.2759 158.345 50.138 158.276C49.9311 158.207 49.7242 158.069 49.5173 158.069C49.3104 158 49.1035 158 48.8966 158.069C48.6897 158.138 48.5518 158.207 48.3449 158.414C48.069 158.69 48.0001 159.035 48.138 159.379C48.207 159.724 48.4138 160.069 48.6207 160.483C48.8276 160.897 49.1035 161.241 49.3794 161.724C49.6552 162.138 49.8621 162.621 50.069 163.104C50.2069 163.586 50.2759 164.069 50.207 164.621C50.138 165.104 49.8621 165.655 49.3794 166.207C48.8966 166.759 48.4138 167.104 47.9311 167.31C47.3794 167.517 46.8276 167.655 46.2759 167.586C45.7242 167.586 45.1725 167.448 44.6207 167.173C44.069 166.897 43.5173 166.552 43.0345 166.138C42.4138 165.586 41.9311 165.035 41.5863 164.414C41.2414 163.793 40.9656 163.035 40.8966 162.276L43.7932 161.931C43.7932 162.414 43.8621 162.828 44.069 163.31C44.2759 163.724 44.5518 164.138 44.8966 164.414C45.0345 164.552 45.2414 164.69 45.4483 164.828C45.6552 164.966 45.8621 165.035 46.069 165.035C46.2759 165.035 46.4828 165.035 46.6897 165.035C46.8966 164.966 47.0345 164.897 47.1725 164.69C47.4483 164.414 47.5173 164.069 47.4483 163.724C47.3794 163.379 47.2414 162.966 46.9656 162.621C46.7587 162.207 46.4828 161.793 46.2069 161.379C45.9311 160.966 45.7242 160.483 45.5173 160C45.3794 159.517 45.3104 159.035 45.3794 158.552C45.4483 158.069 45.6552 157.517 46.138 156.966C46.5518 156.483 47.0345 156.069 47.5863 155.862C48.138 155.655 48.6897 155.586 49.2414 155.586C49.7932 155.586 50.3449 155.724 50.8966 156C51.4483 156.276 51.9311 156.552 52.4138 156.966C52.9656 157.448 53.3794 157.931 53.7932 158.552C54.138 159.104 54.4138 159.793 54.4828 160.483H51.5863Z" fill="#1C272B"/>
<path d="M61.1724 172.483C60.7586 173.104 60.3448 173.655 59.7931 174.069C59.2414 174.483 58.6897 174.759 58.069 174.897C57.4483 175.035 56.8276 175.035 56.069 174.966C55.3793 174.828 54.6897 174.552 53.931 174.069C53.1724 173.586 52.6207 173.104 52.2069 172.552C51.7931 172 51.5173 171.379 51.3793 170.759C51.2414 170.138 51.2414 169.517 51.3793 168.828C51.5173 168.207 51.7931 167.517 52.2069 166.897L56.2759 160.414L58.6207 161.862L54.6207 168.276C54.4138 168.621 54.2759 168.966 54.2069 169.31C54.1379 169.655 54.1379 170 54.2069 170.345C54.2759 170.69 54.4138 170.966 54.6207 171.242C54.8276 171.517 55.0345 171.724 55.3793 171.931C55.6552 172.138 56 172.276 56.3448 172.276C56.6897 172.345 56.9655 172.276 57.3104 172.207C57.6552 172.138 57.9311 172 58.2069 171.724C58.4828 171.448 58.7586 171.242 58.9655 170.897L62.9655 164.483L65.3104 165.931L61.1724 172.483Z" fill="#1C272B"/>
<path d="M67.1724 166.897L71.4483 168.69C72.069 168.966 72.5517 169.241 73.0345 169.586C73.5173 169.931 73.931 170.276 74.2069 170.759C74.4828 171.172 74.6207 171.655 74.6897 172.207C74.7586 172.759 74.6207 173.379 74.3448 174.069C74.069 174.759 73.7242 175.241 73.3104 175.655C72.8966 176 72.4828 176.276 71.9311 176.345C71.4483 176.483 70.8966 176.483 70.3448 176.345C69.7931 176.207 69.1724 176.069 68.5517 175.793L66.6897 175.035L64.8276 179.517L62.2759 178.414L67.1724 166.897ZM67.6552 172.828L69.3104 173.517C69.5173 173.586 69.7931 173.655 70 173.724C70.2069 173.793 70.4828 173.793 70.6897 173.724C70.8966 173.655 71.1035 173.586 71.2414 173.448C71.4483 173.31 71.5862 173.104 71.6552 172.828C71.7931 172.552 71.7931 172.276 71.7242 172.069C71.6552 171.862 71.5173 171.655 71.3793 171.448C71.2414 171.241 71.0345 171.103 70.7586 170.966C70.4828 170.828 70.2759 170.69 70 170.621L68.6897 170.069L67.6552 172.828Z" fill="#1C272B"/>
<path d="M77.2415 170.966L85.4484 173.104L84.8277 175.586L79.3105 174.138L78.7588 176.414L84.0001 177.793L83.3794 180.276L78.1381 178.897L77.5174 181.379L83.3794 182.897L82.7588 185.379L74.276 183.172L77.2415 170.966Z" fill="#1C272B"/>
<path d="M87.5172 173.448L92.3448 173.931C92.9655 174 93.5862 174.138 94.1379 174.276C94.6897 174.483 95.1724 174.69 95.5862 175.035C96 175.379 96.2759 175.793 96.4828 176.276C96.6897 176.759 96.7586 177.379 96.6897 178.138C96.6207 179.035 96.2759 179.724 95.7931 180.276C95.2414 180.828 94.5517 181.172 93.6552 181.241L96.2759 186.828L92.9655 186.483L90.8966 181.241L89.5173 181.104L88.9655 186.069L86.2069 185.793L87.5172 173.448ZM89.7242 178.897L91.3104 179.104C91.5862 179.104 91.7931 179.172 92.069 179.172C92.3448 179.172 92.6207 179.173 92.8276 179.104C93.0345 179.035 93.2414 178.897 93.4483 178.759C93.5862 178.621 93.7241 178.345 93.7241 178C93.7241 177.655 93.7241 177.448 93.5862 177.241C93.4483 177.035 93.3104 176.897 93.1724 176.759C92.9655 176.621 92.7586 176.552 92.4828 176.483C92.2069 176.414 92 176.345 91.7242 176.345L89.931 176.138L89.7242 178.897Z" fill="#1C272B"/>
<path d="M98.4138 174.621L102.138 174.414L107.931 182.759H108L107.517 174.069L110.276 173.931L110.966 186.414L107.379 186.621L101.448 178.069H101.379L101.862 186.966L99.1035 187.104L98.4138 174.621Z" fill="#1C272B"/>
<path d="M113.035 179.862C112.828 178.897 112.759 178 112.897 177.104C113.035 176.207 113.31 175.448 113.724 174.759C114.138 174.069 114.759 173.448 115.448 172.966C116.207 172.483 117.035 172.138 117.931 171.862C118.828 171.586 119.793 171.586 120.69 171.655C121.586 171.724 122.345 172 123.103 172.414C123.862 172.828 124.414 173.379 124.966 174.069C125.517 174.759 125.862 175.586 126.138 176.552C126.414 177.517 126.414 178.414 126.276 179.31C126.138 180.207 125.862 180.966 125.448 181.655C125.035 182.345 124.414 182.966 123.724 183.448C123.035 183.931 122.138 184.276 121.241 184.552C120.345 184.828 119.379 184.828 118.483 184.759C117.586 184.69 116.828 184.414 116.069 184C115.379 183.586 114.759 183.035 114.207 182.345C113.655 181.655 113.241 180.828 113.035 179.862ZM115.793 179.172C115.931 179.724 116.138 180.276 116.483 180.69C116.759 181.104 117.103 181.448 117.517 181.724C117.931 182 118.414 182.138 118.897 182.207C119.379 182.276 119.931 182.276 120.552 182.138C121.103 182 121.586 181.793 122 181.448C122.414 181.173 122.759 180.759 122.966 180.345C123.241 179.931 123.379 179.448 123.448 178.897C123.517 178.345 123.448 177.862 123.31 177.241C123.172 176.69 122.966 176.207 122.69 175.724C122.414 175.31 122.069 174.966 121.586 174.69C121.103 174.414 120.69 174.276 120.207 174.207C119.724 174.138 119.172 174.138 118.552 174.276C118 174.414 117.517 174.621 117.103 174.966C116.69 175.241 116.345 175.655 116.138 176.069C115.862 176.483 115.724 176.966 115.655 177.517C115.586 178.069 115.655 178.621 115.793 179.172Z" fill="#1C272B"/>
<path d="M124.69 170.483L127.586 169.172L133.724 175.379L133.241 166.621L135.931 165.448L136.345 178.966L134.345 179.862L124.69 170.483Z" fill="#1C272B"/>
<path d="M139.31 163.173L141.241 161.931L152.552 169.448L149.931 171.104L147.586 169.448L143.517 172.069L144.069 174.828L141.517 176.483L139.31 163.173ZM142.138 165.655L142.965 169.724L145.517 168.069L142.138 165.655Z" fill="#1C272B"/>
<path d="M152.966 156.483C152.621 156.414 152.276 156.483 151.862 156.621C151.517 156.759 151.173 156.966 150.897 157.173C150.759 157.31 150.621 157.448 150.483 157.655C150.345 157.862 150.276 158 150.207 158.207C150.138 158.414 150.138 158.621 150.138 158.828C150.138 159.035 150.276 159.241 150.414 159.379C150.69 159.655 150.966 159.793 151.31 159.724C151.655 159.655 152 159.586 152.483 159.379C152.966 159.173 153.31 159.035 153.793 158.759C154.276 158.552 154.759 158.414 155.241 158.276C155.724 158.207 156.207 158.207 156.759 158.345C157.241 158.483 157.724 158.828 158.207 159.379C158.69 159.931 158.966 160.414 159.104 160.966C159.241 161.517 159.241 162.069 159.173 162.621C159.104 163.173 158.828 163.724 158.552 164.207C158.207 164.69 157.793 165.173 157.31 165.586C156.69 166.138 156.069 166.552 155.379 166.828C154.69 167.104 153.931 167.241 153.104 167.241L153.173 164.345C153.655 164.414 154.069 164.414 154.552 164.276C155.035 164.138 155.379 163.931 155.724 163.655C155.862 163.517 156.069 163.31 156.207 163.173C156.345 162.966 156.414 162.759 156.483 162.552C156.552 162.345 156.552 162.138 156.552 161.931C156.552 161.724 156.414 161.517 156.276 161.379C156 161.104 155.724 160.966 155.379 160.966C155.035 160.966 154.621 161.104 154.207 161.241C153.793 161.448 153.31 161.586 152.828 161.862C152.345 162.069 151.862 162.207 151.379 162.345C150.897 162.414 150.414 162.414 149.862 162.276C149.379 162.138 148.897 161.793 148.414 161.31C148 160.828 147.655 160.276 147.517 159.724C147.379 159.173 147.379 158.621 147.448 158.069C147.586 157.517 147.793 156.966 148.069 156.483C148.345 156 148.759 155.517 149.241 155.104C149.793 154.621 150.345 154.276 150.966 154C151.586 153.724 152.276 153.586 152.966 153.586V156.483Z" fill="#1C272B"/>
<path d="M53.2415 26.6208L57.2415 24.3449C57.7932 24.0001 58.3449 23.7932 58.8966 23.5863C59.4484 23.3794 60.0001 23.3104 60.4828 23.3794C60.9656 23.4483 61.5173 23.5863 61.9311 23.8621C62.4139 24.138 62.8277 24.6208 63.1725 25.2414C63.5173 25.8621 63.7242 26.4828 63.7932 27.0345C63.8621 27.5863 63.7242 28.069 63.5173 28.5518C63.3104 29.0346 62.9656 29.4483 62.5518 29.7932C62.138 30.207 61.6553 30.5518 61.0346 30.8966L59.3104 31.8621L61.7242 36.069L59.3104 37.4483L53.2415 26.6208ZM58.2759 29.8621L59.8621 28.9656C60.069 28.8277 60.2759 28.6897 60.4139 28.5518C60.5518 28.4139 60.7587 28.207 60.8277 28.069C60.8966 27.8621 60.9656 27.6552 60.9656 27.4483C60.9656 27.2414 60.8966 26.9656 60.7587 26.7587C60.6208 26.4828 60.4139 26.2759 60.207 26.207C60.0001 26.138 59.7242 26.069 59.5173 26.069C59.2415 26.069 59.0346 26.138 58.7587 26.2759C58.4828 26.4139 58.2759 26.4828 58.0001 26.6208L56.7587 27.3104L58.2759 29.8621Z" fill="#1C272B"/>
<path d="M65.9311 26.6208C65.5863 25.6553 65.4484 24.7587 65.4484 23.9311C65.5173 23.0346 65.6553 22.276 66.0691 21.5173C66.4139 20.7587 66.9656 20.138 67.5863 19.5173C68.2759 18.9656 69.0346 18.4829 69.9311 18.138C70.8277 17.7932 71.7242 17.6553 72.6208 17.6553C73.5173 17.6553 74.3449 17.7932 75.1035 18.138C75.8622 18.4829 76.5518 18.9656 77.1035 19.5863C77.7242 20.207 78.138 21.0346 78.4828 21.9311C78.8277 22.8967 78.9656 23.7932 78.9656 24.6208C78.8966 25.5173 78.7587 26.276 78.3449 27.0346C78.0001 27.7932 77.4484 28.4139 76.8277 29.0346C76.207 29.6553 75.3794 30.0691 74.4828 30.4139C73.5863 30.7587 72.6897 30.8967 71.7932 30.8967C70.8966 30.8967 70.0691 30.7587 69.3104 30.4139C68.5518 30.0691 67.8622 29.5863 67.3104 28.9656C66.7587 28.3449 66.2759 27.5173 65.9311 26.6208ZM68.6208 25.5863C68.8277 26.138 69.1035 26.6208 69.4484 27.0346C69.7932 27.4484 70.207 27.7242 70.6208 27.9311C71.0346 28.138 71.5173 28.276 72.0691 28.276C72.5518 28.276 73.1035 28.207 73.6553 28.0001C74.207 27.7932 74.6897 27.5173 75.0346 27.1725C75.3794 26.8277 75.7242 26.4139 75.9311 25.9311C76.138 25.4484 76.207 24.9656 76.207 24.4829C76.207 23.9311 76.138 23.4484 75.9311 22.8967C75.7242 22.3449 75.4484 21.8622 75.1035 21.5173C74.7587 21.1725 74.3449 20.8277 73.9311 20.6208C73.5173 20.4139 73.0346 20.276 72.4828 20.276C72.0001 20.276 71.4484 20.3449 70.8966 20.5518C70.3449 20.7587 69.8622 21.0346 69.5173 21.3794C69.1725 21.7242 68.8277 22.138 68.6897 22.6208C68.4828 23.1035 68.4139 23.5863 68.4139 24.0691C68.3449 24.5518 68.4139 25.1035 68.6208 25.5863Z" fill="#1C272B"/>
<path d="M86.4138 17.2414C86.138 17.0345 85.7932 16.8276 85.3794 16.8276C84.9656 16.7587 84.6207 16.7587 84.2759 16.8276C84.069 16.8966 83.8621 16.8966 83.6552 17.0345C83.4483 17.1035 83.2414 17.2414 83.1035 17.3793C82.9656 17.5173 82.8276 17.6552 82.7587 17.8621C82.6897 18.069 82.6207 18.2759 82.6897 18.4828C82.7587 18.8276 82.9656 19.1035 83.2414 19.2414C83.5863 19.3793 83.9311 19.5173 84.4138 19.5173C84.8276 19.5862 85.3104 19.6552 85.8621 19.6552C86.3449 19.7242 86.8966 19.7931 87.3104 20C87.7932 20.2069 88.2069 20.4138 88.5518 20.8276C88.8966 21.2414 89.1725 21.7242 89.3104 22.4828C89.4483 23.1724 89.4483 23.7931 89.2414 24.3449C89.1035 24.8966 88.8276 25.3793 88.4828 25.7931C88.138 26.2069 87.6552 26.5518 87.1035 26.8276C86.5518 27.1035 86.0001 27.3104 85.3104 27.4483C84.4828 27.5862 83.7242 27.6552 83.0345 27.5173C82.2759 27.3793 81.5863 27.1035 80.8966 26.6897L82.4138 24.2069C82.7587 24.5518 83.1725 24.7586 83.6552 24.8966C84.138 25.0345 84.5518 25.0345 85.0345 24.9655C85.2414 24.8966 85.4483 24.8276 85.6552 24.7586C85.8621 24.6897 86.069 24.5518 86.2069 24.4138C86.3449 24.2759 86.4828 24.138 86.5518 23.9311C86.6207 23.7242 86.6207 23.5173 86.6207 23.3104C86.5518 22.9655 86.3449 22.6897 86.0001 22.5518C85.6552 22.4138 85.3104 22.2759 84.8276 22.2069C84.3449 22.138 83.8621 22.069 83.3794 22C82.8966 21.9311 82.3449 21.8621 81.8621 21.6552C81.3794 21.4483 80.9656 21.2414 80.6207 20.8276C80.2759 20.4828 80.0001 19.9311 79.8621 19.2414C79.7242 18.5518 79.7242 18 79.9311 17.4483C80.138 16.8966 80.3449 16.4138 80.7587 16C81.1035 15.5862 81.5863 15.2414 82.138 14.9655C82.6897 14.6897 83.2414 14.4828 83.8621 14.3449C84.5518 14.2069 85.2414 14.2069 85.9311 14.2759C86.6207 14.3449 87.2414 14.5518 87.8621 14.8966L86.4138 17.2414Z" fill="#1C272B"/>
<path d="M93.6552 15.7932L90.069 16.0001L89.931 13.5863L99.7931 13.0345L99.931 15.4483L96.3448 15.6552L96.8966 25.6552L94.1379 25.7932L93.6552 15.7932Z" fill="#1C272B"/>
<path d="M102.828 12.8966L106.966 13.3794L108.897 21.7932H108.966L112.759 14.0001L116.897 14.4828L115.517 26.8966L112.759 26.6207L113.862 17.1035H113.793L109.379 26.207L107.31 26.0001L105.241 16.138H105.172L104.138 25.5863L101.379 25.3104L102.828 12.8966Z" fill="#1C272B"/>
<path d="M124.966 16.7587L127.104 17.4483L128.552 30.9656L125.586 30.069L125.379 27.2414L120.759 25.7932L118.966 28L116.069 27.1035L124.966 16.7587ZM124.828 20.5518L122.207 23.7932L125.104 24.6897L124.828 20.5518Z" fill="#1C272B"/>
<path d="M134.966 20.2759L138.276 22L138.966 32.1379L142.966 24.4828L145.379 25.7242L139.586 36.7586L136.414 35.1035L135.724 24.6897L131.586 32.5517L129.172 31.3104L134.966 20.2759Z" fill="#1C272B"/>
<path d="M49.931 64.8966C49.862 64.8966 49.862 64.9656 49.931 64.8966C49.931 64.8966 49.931 64.8966 50 64.8276C49.931 64.8276 49.931 64.8966 49.931 64.8966Z" fill="#1C272B"/>
<path d="M151.034 135.931C151.034 135.931 151.034 135.862 151.034 135.931C151.034 135.931 150.965 135.931 151.034 135.931C150.965 135.931 151.034 135.931 151.034 135.931Z" fill="#1C272B"/>
<path d="M152 124.828C149.793 121.104 147.103 117.724 144.276 114.483C142.621 112.552 140.828 110.69 139.034 108.897L136.138 111.724C137.793 113.448 139.448 115.172 141.034 116.966C142.414 118.552 144 120.414 145.034 121.793C146.138 123.31 147.241 124.828 148.207 126.414C148.621 127.104 149.034 127.862 149.448 128.552C149.655 128.897 149.793 129.241 149.931 129.586C150 129.724 150.069 129.931 150.138 130.069C150.138 130.138 150.276 130.345 150.276 130.414C150.345 130.483 150.345 130.621 150.345 130.69C150.414 130.828 150.483 131.035 150.552 131.172C150.69 131.448 150.759 131.793 150.828 132.069C150.897 132.345 150.966 132.621 151.034 132.966C151.034 133.104 151.103 133.241 151.103 133.379C151.103 133.448 151.103 133.517 151.172 133.586C151.172 133.655 151.172 133.724 151.172 133.793C151.172 133.931 151.172 134.069 151.172 134.207C151.172 134.483 151.172 134.69 151.172 134.966C151.172 135.035 151.172 135.104 151.172 135.172C151.103 135.379 151.034 135.655 150.966 135.862V135.931C151.034 135.862 151.034 135.793 150.966 136C150.966 136.069 150.897 136.138 150.897 136.138V136.069C150.828 136.207 150.69 136.414 150.621 136.552C150.552 136.621 150.483 136.69 150.483 136.759C150.414 136.828 150.345 136.897 150.276 136.966C150.069 137.104 149.931 137.172 149.724 137.31C149.655 137.379 149.517 137.379 149.448 137.448H149.379C148.897 137.586 148.345 137.724 147.862 137.862C147.862 137.862 147.862 137.862 147.793 137.862C147.655 137.862 147.517 137.862 147.379 137.931C147.034 137.931 146.759 138 146.414 138C145.724 138 144.966 138 144.276 137.931C144.069 137.931 143.862 137.862 143.655 137.862C143.586 137.862 143.379 137.862 143.31 137.793C143.172 137.793 143.034 137.724 142.966 137.724C142.759 137.724 142.552 137.655 142.276 137.586C141.379 137.448 140.552 137.241 139.655 137.035C138.552 136.759 137.517 136.483 136.483 136.138L136.759 137.655C136.897 138.621 136.966 139.517 136.897 140.483C139.586 141.241 142.414 141.793 145.172 141.931C147.931 142.069 150.828 141.724 152.966 139.931C157.655 136.069 154.345 128.897 152 124.828Z" fill="#1C272B"/>
<path d="M52.4138 81.1725C53.5862 80.4139 54.8965 79.9311 56.3448 79.6552C56.2069 79.4483 56.0689 79.3104 55.931 79.1035C55.3103 78.3449 54.7586 77.5173 54.2069 76.6897C53.2414 75.2414 52.2758 73.7932 51.5172 72.2759C51.3793 71.9311 51.1724 71.6552 51.0345 71.3104C50.9655 71.1035 50.8965 70.9656 50.7586 70.7587C50.6896 70.6897 50.6896 70.5518 50.6207 70.4828C50.4138 69.9311 50.2069 69.3104 50 68.7587C49.931 68.4828 49.8621 68.207 49.7931 67.9311C49.7241 67.7242 49.6552 66.7587 49.6552 67.4483C49.6552 66.9656 49.5862 66.4139 49.5862 65.9311C49.5862 65.8621 49.5862 65.7932 49.5862 65.7242C49.6552 65.5173 49.6552 65.3104 49.7241 65.1035C49.7241 65.1035 49.7241 65.0345 49.7931 64.9656C49.7241 65.0345 49.7241 65.1035 49.7931 64.8966C49.7931 64.8276 49.8621 64.7587 49.8621 64.7587V64.8276C49.931 64.6897 50 64.5518 50.1379 64.4139C50.2069 64.3449 50.2758 64.2759 50.3448 64.207C50.4138 64.138 50.4827 64.069 50.5517 64.0001C50.7586 63.9311 50.8965 63.7932 51.1034 63.6552C51.1724 63.5863 51.3103 63.5863 51.3793 63.5173C51.931 63.3794 52.4138 63.2414 52.9655 63.1035H53.0345C53.1724 63.1035 53.2414 63.1035 53.3793 63.0345C53.7241 63.0345 54.069 62.9656 54.4138 62.9656C55.1034 62.9656 55.8621 62.9656 56.5517 63.0345C56.8965 63.0345 57.1724 63.1035 57.5172 63.1725C57.5862 63.1725 57.7241 63.1725 57.7931 63.2414C58.069 63.3104 58.2758 63.3104 58.5517 63.3794C60.4138 63.7242 62.2069 64.138 64 64.6897C70.1379 66.4828 76 69.1035 81.7241 72.069L83.5172 68.4828C79.1724 66.2759 74.7586 64.2759 70.2069 62.5518C66.4138 61.1035 62.4827 59.8621 58.4138 59.3104C55.4483 58.8966 52.2758 58.7587 49.4483 60.0001C48.3448 60.5518 47.4483 61.3104 46.6896 62.3449C45.2414 64.4139 45.3793 67.1725 46 69.4483C46.8276 72.6207 48.5517 75.6552 50.4138 78.3449C51.0345 79.2414 51.7241 80.207 52.4138 81.1725Z" fill="#1C272B"/>
<path d="M49.9311 135.931C49.8622 135.862 49.8622 135.862 49.9311 135.931V135.931Z" fill="#1C272B"/>
<path d="M155.172 65.7242C155.035 64.5518 154.759 63.3794 154.069 62.3449C150.276 57.1035 142 59.0345 136.759 60.4828C129.793 62.4138 123.172 65.3794 116.69 68.6897L118.483 72.3449C122.483 70.2759 126.621 68.3449 130.759 66.7587C134.483 65.3104 138.345 64 142.345 63.3794C142.552 63.3794 142.759 63.3104 142.897 63.3104C142.966 63.3104 143.103 63.3104 143.172 63.2414C143.517 63.1725 143.931 63.1725 144.276 63.1035C144.966 63.0345 145.655 63.0345 146.414 63.0345C146.69 63.0345 147.035 63.0345 147.31 63.1035C147.448 63.1035 147.517 63.1035 147.655 63.1725C147.724 63.1725 147.793 63.1725 147.862 63.1725C148.414 63.2414 148.897 63.4483 149.379 63.5863C149.448 63.6552 149.586 63.6552 149.655 63.7242C149.862 63.7932 150 63.9311 150.207 64.069C150.276 64.138 150.345 64.2069 150.414 64.2759C150.483 64.3449 150.552 64.4138 150.621 64.4828C150.69 64.6207 150.759 64.7587 150.828 64.8966C150.828 64.8966 150.828 64.9656 150.897 65.0345C150.966 65.1725 150.966 65.1725 150.966 65.1725C150.966 65.2414 150.966 65.2414 150.966 65.2414C151.035 65.4483 151.103 65.6552 151.103 65.8621C151.103 65.9311 151.103 65.9311 151.103 66C151.103 66.069 151.103 66.138 151.103 66.2069C151.103 66.4138 151.103 66.6897 151.103 66.8966C151.103 67.0345 151.103 67.1725 151.103 67.3104V67.3794C150.966 67.9311 150.897 68.4828 150.759 69.0345C150.552 69.6552 150.345 70.2069 150.138 70.8276C150.138 70.8966 150.069 70.9656 150.069 71.0345C150 71.1725 149.931 71.3794 149.862 71.5173C149.655 71.8621 149.517 72.2759 149.31 72.6207C148.483 74.138 147.586 75.6552 146.552 77.1035C145.862 78.069 145.172 79.0345 144.483 79.9311C145.862 80.2759 147.103 80.8966 148.207 81.7242C150.069 79.3104 151.793 76.6897 153.172 73.9311C154.276 71.3104 155.448 68.4828 155.172 65.7242ZM151.103 67.2414C151.035 67.4483 151.035 67.5173 151.103 67.2414V67.2414Z" fill="#1C272B"/>
<path d="M63.2414 137.517L63.4483 136.276C62.6897 136.483 61.931 136.69 61.1035 136.897C60.2759 137.104 59.3793 137.31 58.4828 137.448C58.2759 137.448 58.069 137.517 57.931 137.517C57.8621 137.517 57.5862 137.586 57.5173 137.586C57.1724 137.655 56.8276 137.655 56.5517 137.724C55.8621 137.793 55.1724 137.793 54.4138 137.793C54.069 137.793 53.7931 137.793 53.4483 137.724C53.3104 137.724 53.2414 137.724 53.1035 137.655C53.0345 137.655 53.0345 137.655 52.9655 137.655C52.4138 137.586 51.931 137.379 51.3793 137.241C51.3104 137.172 51.2414 137.172 51.1724 137.104C50.9655 137.035 50.7586 136.828 50.5517 136.759C50.4828 136.69 50.4138 136.621 50.3448 136.621C50.2759 136.552 50.2069 136.483 50.1379 136.414C50.069 136.276 49.931 136.138 49.8621 136C49.8621 136.069 49.8621 136.069 49.8621 136.069C49.8621 136.069 49.8621 136 49.7931 135.931C49.6552 135.724 49.7241 135.793 49.7931 135.862C49.7931 135.793 49.7241 135.724 49.7241 135.655C49.6552 135.448 49.5862 135.241 49.5862 135.035V134.966C49.5862 134.828 49.5862 134.759 49.5862 134.759C49.5862 134.552 49.5862 134.276 49.5862 134.069C49.5862 133.931 49.5862 133.793 49.5862 133.724C49.5862 133.724 49.5862 133.724 49.5862 133.655C49.931 132.483 50.1379 131.379 50.6207 130.207C50.6897 130.138 50.6897 130 50.7586 129.931C50.8276 129.793 50.8966 129.586 50.9655 129.448C51.1035 129.104 51.3104 128.759 51.5172 128.414C51.931 127.655 52.3448 126.966 52.7586 126.276C54.9655 122.69 57.2414 119.862 60 116.759C61.3793 115.172 62.8276 113.655 64.2759 112.138L61.3793 109.31C58.069 112.759 54.8966 116.345 52.069 120.138C49.8621 123.035 47.931 126.138 46.6207 129.586C45.7241 131.862 45.1035 134.621 46 136.966C48.2069 143.104 56.2069 142.138 61.2414 141.035C61.8621 140.897 62.5517 140.759 63.1724 140.552C63.0345 139.586 63.0345 138.552 63.2414 137.517ZM49.6552 133.655C49.7241 133.448 49.7241 133.379 49.6552 133.655V133.655Z" fill="#1C272B"/>
<path d="M150.828 64.9656C150.828 64.9656 150.828 64.8966 150.828 64.9656C150.759 64.9656 150.828 65.1035 150.897 65.1035C150.897 65.1035 150.897 65.0346 150.828 64.9656Z" fill="#1C272B"/>
<path d="M100.759 85.5862L104.965 94.069C105.103 94.3449 105.31 94.4828 105.586 94.5518L114.896 95.9311C115.586 96 115.862 96.8966 115.379 97.3793L108.621 103.931C108.414 104.138 108.345 104.414 108.414 104.69L110 114C110.138 114.69 109.379 115.172 108.759 114.897L100.414 110.483C100.138 110.345 99.862 110.345 99.6551 110.483L91.3103 114.897C90.6896 115.241 89.9999 114.69 90.0689 114L91.6551 104.69C91.7241 104.414 91.5861 104.138 91.4482 103.931L84.6896 97.3793C84.2068 96.8966 84.4827 96.069 85.1723 95.9311L94.4827 94.5518C94.7585 94.4828 94.9654 94.3449 95.1034 94.069L99.3103 85.5862C99.5861 84.9656 100.414 84.9656 100.759 85.5862Z" fill="#1C272B"/>
<path d="M74.3449 145.241C73.1724 145.241 71.9311 144.897 70.9655 144.138C69.1724 142.828 68.2759 140.69 68.6897 138.483L73.1035 112.897L54.4828 94.8276C52.8966 93.3104 52.3449 91.0345 53.0345 88.8966C53.7242 86.7587 55.5173 85.3104 57.7242 84.9656L83.3793 81.2414L94.8276 58C95.7931 56 97.7931 54.7587 100 54.7587C102.207 54.7587 104.207 56 105.172 58L116.621 81.2414L142.276 84.9656C144.483 85.3104 146.276 86.8276 146.966 88.8966C147.655 91.0345 147.103 93.3104 145.517 94.8276L126.966 112.897L131.379 138.483C131.724 140.69 130.897 142.828 129.103 144.138C127.31 145.448 124.966 145.586 123.035 144.552L100 132.552L77.0345 144.621C76.2069 145.035 75.2414 145.241 74.3449 145.241ZM100 125.448C100.897 125.448 101.862 125.655 102.69 126.138L124.138 137.448L120.069 113.517C119.724 111.655 120.345 109.724 121.724 108.414L139.103 91.4483L115.103 87.9311C113.241 87.6552 111.586 86.4828 110.759 84.7587L100 63.0345L89.2414 84.8276C88.4138 86.5518 86.7586 87.7242 84.8966 88L60.8966 91.5173L78.2759 108.483C79.6552 109.793 80.2759 111.724 79.9311 113.586L75.8621 137.517L97.3104 126.207C98.138 125.724 99.1035 125.448 100 125.448Z" fill="#1C272B"/>
<path d="M75.4481 45.9311C74.0688 45.5862 72.8275 44.8966 71.793 44C72.8275 43.0345 74.0688 42.4138 75.4481 42.069C75.793 40.6897 76.4826 39.4483 77.3792 38.4138C78.3447 39.4483 78.9654 40.6897 79.3102 42.069C80.6895 42.4138 81.9309 43.1035 82.9654 44C81.9309 44.9655 80.6895 45.5862 79.3102 45.9311C78.9654 47.3104 78.2757 48.5518 77.3792 49.5862C76.4826 48.5518 75.793 47.3104 75.4481 45.9311Z" fill="#1C272B"/>
<path d="M122.414 45.9311C121.035 45.5862 119.793 44.8966 118.759 44C119.793 43.0345 121.035 42.4138 122.414 42.069C122.759 40.6897 123.448 39.4483 124.345 38.4138C125.31 39.4483 125.931 40.6897 126.276 42.069C127.655 42.4138 128.897 43.1035 129.931 44C128.897 44.9655 127.655 45.5862 126.276 45.9311C125.931 47.3104 125.241 48.5518 124.345 49.5862C123.448 48.5518 122.759 47.3104 122.414 45.9311Z" fill="#1C272B"/>
<path d="M75.4482 158.276C74.6206 158.069 73.7931 157.655 73.1724 157.035C73.7931 156.483 74.5517 156.069 75.4482 155.793C75.6551 154.966 76.0689 154.138 76.6896 153.517C77.2413 154.138 77.6551 154.897 77.931 155.793C78.7586 156 79.5862 156.414 80.2068 157.035C79.5862 157.586 78.8275 158 77.931 158.276C77.7241 159.104 77.3103 159.931 76.6896 160.552C76.0689 159.862 75.6551 159.104 75.4482 158.276Z" fill="#1C272B"/>
<path d="M98.8276 157.172C97.3794 156.828 96.069 156.069 94.9656 155.104C96.069 154.138 97.3794 153.379 98.8276 153.035C99.1725 151.586 99.9311 150.276 100.897 149.172C101.862 150.276 102.621 151.586 102.966 153.035C104.414 153.379 105.724 154.138 106.828 155.104C105.724 156.069 104.414 156.828 102.966 157.172C102.621 158.621 101.862 159.931 100.897 161.035C99.9311 159.931 99.1725 158.621 98.8276 157.172Z" fill="#1C272B"/>
<path d="M126.345 158.276C127.173 158.069 128 157.655 128.621 157.035C128 156.483 127.241 156.069 126.345 155.793C126.138 154.966 125.724 154.138 125.104 153.517C124.552 154.138 124.138 154.897 123.862 155.793C123.035 156 122.207 156.414 121.586 157.035C122.207 157.586 122.966 158 123.862 158.276C124.069 159.104 124.483 159.931 125.104 160.552C125.724 159.862 126.138 159.104 126.345 158.276Z" fill="#1C272B"/>
<path d="M25.6552 84.4828C24.3448 84.138 23.1724 83.5173 22.2069 82.6208C23.1724 81.7242 24.3448 81.1035 25.6552 80.7587C26 79.4484 26.6207 78.2759 27.5173 77.3104C28.4138 78.2759 29.0345 79.4484 29.3793 80.7587C30.6897 81.1035 31.8621 81.7242 32.8276 82.6208C31.8621 83.5173 30.6897 84.138 29.3793 84.4828C29.0345 85.7932 28.4138 86.9656 27.5173 87.9311C26.6207 87.0346 26 85.7932 25.6552 84.4828Z" fill="#1C272B"/>
<path d="M174.552 83.7931C175.862 83.4483 177.034 82.8276 178 81.9311C177.034 81.0345 175.862 80.4138 174.552 80.069C174.207 78.7587 173.586 77.5862 172.69 76.6207C171.793 77.5862 171.172 78.7587 170.828 80.069C169.517 80.4138 168.345 81.0345 167.379 81.9311C168.345 82.8276 169.517 83.4483 170.828 83.7931C171.172 85.1035 171.793 86.2759 172.69 87.2414C173.586 86.3449 174.276 85.1035 174.552 83.7931Z" fill="#1C272B"/>
<path d="M179.035 116C179.793 115.793 180.483 115.448 181.035 114.897C180.483 114.414 179.793 114 179.035 113.793C178.828 113.035 178.483 112.345 177.931 111.793C177.448 112.345 177.035 113.035 176.828 113.793C176.069 114 175.379 114.345 174.828 114.897C175.379 115.379 176.069 115.793 176.828 116C177.035 116.759 177.379 117.448 177.931 118C178.483 117.448 178.828 116.759 179.035 116Z" fill="#1C272B"/>
<path d="M21.3794 116C20.6208 115.793 19.9311 115.448 19.3794 114.897C19.9311 114.414 20.6208 114 21.3794 113.793C21.5863 113.035 21.9311 112.345 22.4828 111.793C22.9656 112.345 23.3794 113.035 23.5863 113.793C24.3449 114 25.0346 114.345 25.5863 114.897C25.0346 115.379 24.3449 115.793 23.5863 116C23.3794 116.759 23.0346 117.448 22.4828 118C21.9311 117.448 21.5863 116.759 21.3794 116Z" fill="#1C272B"/>
<path d="M102.207 38.8966C103.104 39.1035 103.931 39.5862 104.621 40.2069C103.931 40.8276 103.104 41.3104 102.207 41.5173C102 42.4138 101.517 43.2414 100.897 43.9311C100.276 43.2414 99.7932 42.4138 99.5863 41.5173C98.6897 41.3104 97.8621 40.8276 97.1725 40.2069C97.8621 39.5862 98.6897 39.1035 99.5863 38.8966C99.7932 38 100.276 37.1724 100.897 36.4828C101.517 37.1724 101.931 38 102.207 38.8966Z" fill="#1C272B"/>
</svg>
