<?xml version="1.0" encoding="UTF-8"?>
<svg xmlns="http://www.w3.org/2000/svg" xmlns:xlink="http://www.w3.org/1999/xlink" version="1.1" id="Layer_1" x="0px" y="0px" viewBox="0 0 659.1 200" style="enable-background:new 0 0 659.1 200;" xml:space="preserve">
<style type="text/css">
	.st0{fill:#FFFFFF;}
</style>
<title>pm-logo-horiz copy</title>
<g>
	<path class="st0" d="M232.5,128.6V70.7c0-0.7,0.3-1.3,0.8-1.8c0.6-0.5,1.3-0.8,2.1-0.7h16.3c4.8-0.2,9.6,1.4,13.3,4.5   c3.3,3,5,7.7,5,14.1v0.8c0,6.4-1.7,11.2-5.1,14.2c-3.8,3.1-8.6,4.8-13.5,4.5h-11.7v22.3c0,0.8-0.4,1.5-1.1,1.9   c-1.6,0.9-3.5,0.9-5.1,0C232.9,130.1,232.5,129.4,232.5,128.6z M239.7,100.3h11.7c3.1,0.2,6.2-0.9,8.4-3.1c2.2-2.5,3.3-5.8,3-9.2   V87c0.3-3.3-0.8-6.6-3-9.2c-2.3-2.1-5.3-3.2-8.4-3h-11.6L239.7,100.3z"/>
	<path class="st0" d="M295.2,113V87c0-6.5,1.7-11.2,5-14.2c8-6,19-6,27,0c3.4,3,5.1,7.8,5.1,14.2v26c0,6.5-1.7,11.2-5.1,14.2   c-8,6.1-19,6.1-27,0C296.9,124.2,295.2,119.4,295.2,113z M302.5,113c0,8.2,3.7,12.2,11.3,12.2c3.1,0.2,6.1-0.9,8.4-3.1   c2.2-2.5,3.2-5.8,3-9.2V87c0.3-3.3-0.8-6.6-3-9.2c-2.3-2.1-5.3-3.2-8.4-3c-7.5,0-11.3,4.1-11.3,12.2V113z"/>
	<path class="st0" d="M357.9,122.3c0-1,0.4-1.9,1-2.7c0.5-0.7,1.2-1.2,2.1-1.3c0.8,0.1,1.5,0.5,2,1.1c0.8,0.7,1.6,1.5,2.5,2.4   c1.2,1.1,2.6,1.9,4.1,2.4c2,0.8,4.2,1.1,6.3,1.1c3.2,0.2,6.3-0.8,8.8-2.7c2.2-2,3.4-5,3.2-8c0.1-2.9-0.9-5.6-2.9-7.7   c-2-2-4.4-3.5-7.1-4.5c-2.8-1-5.5-2.1-8.4-3.3c-2.8-1.2-5.2-3-7.1-5.4c-2-2.7-3.1-6-2.9-9.4c-0.1-2.7,0.5-5.4,1.7-7.9   c1-2.1,2.6-3.8,4.6-5c1.9-1.1,3.9-1.9,6-2.5c2.2-0.5,4.4-0.8,6.6-0.8c3.5,0,6.9,0.5,10.2,1.5c3.2,1.1,4.9,2.5,4.9,4.2   c0,0.9-0.3,1.8-0.9,2.6c-0.4,0.8-1.3,1.4-2.2,1.4c-1.3-0.4-2.6-0.9-3.9-1.5c-2.5-1.1-5.2-1.7-8-1.6c-2.9-0.1-5.9,0.6-8.4,2.1   c-2.2,1.5-3.4,4.1-3.2,6.8c-0.1,2.5,0.9,4.9,2.8,6.5c2.1,1.7,4.5,3.1,7.1,3.9c2.8,1,5.6,2.1,8.4,3.4c2.8,1.4,5.2,3.5,7,6.1   c2.1,3.2,3.1,6.9,2.9,10.6c0,5.9-1.7,10.4-5.2,13.4c-3.8,3.2-8.7,4.8-13.7,4.5c-4.5,0.1-9-1-12.9-3.2   C359.7,126.5,357.9,124.4,357.9,122.3z"/>
	<path class="st0" d="M416.6,71.4c0-0.8,0.2-1.6,0.7-2.2c0.4-0.7,1.1-1,1.9-1h35c0.8,0,1.5,0.3,1.9,1c0.5,0.7,0.7,1.4,0.7,2.2   c0,0.8-0.2,1.7-0.7,2.4c-0.4,0.7-1.1,1-1.9,1h-13.7v53.8c0,0.8-0.4,1.5-1.1,1.9c-1.6,0.9-3.5,0.9-5.1,0c-0.7-0.4-1.1-1.1-1.1-1.9   V74.8h-14c-0.8,0-1.5-0.3-1.9-1C416.9,73.1,416.6,72.3,416.6,71.4z"/>
	<path class="st0" d="M481.4,128.6V71.9c-0.3-1.7,0.9-3.3,2.6-3.6c0,0,0,0,0,0c0.4-0.1,0.8-0.1,1.1,0c2.3,0,4.2,1.5,5.8,4.6   l13.5,25.9L518,72.8c1.7-3,3.6-4.6,5.8-4.6c1.7-0.3,3.3,0.9,3.6,2.6c0,0,0,0,0,0l0,0c0,0.3,0,0.6,0,0.9v56.7c0,0.8-0.4,1.5-1.1,1.9   c-1.6,0.9-3.5,0.9-5.1,0c-0.7-0.4-1.1-1.1-1.1-1.9V83.4l-13,24.4c-0.4,1.2-1.5,2.1-2.8,2.1c-1.2-0.1-2.3-0.9-2.7-2.1l-13-24.9v45.6   c0,0.8-0.4,1.5-1.1,1.9c-0.7,0.5-1.6,0.8-2.4,0.8c-0.9,0-1.8-0.2-2.5-0.7C481.8,130.2,481.3,129.5,481.4,128.6z"/>
	<path class="st0" d="M552.1,128.2c0-0.2,0.1-0.5,0.2-0.7l17.6-56.7c0.5-1.7,2-2.5,4.4-2.5s3.9,0.8,4.4,2.5l17.7,57   c0,0.1,0,0.2,0,0.3c0,0.1,0,0.2,0,0.2c0,0.9-0.6,1.7-1.4,2.1c-1,0.6-2,0.9-3.2,0.8c-1.1,0.1-2.2-0.5-2.6-1.6l-3.8-12.6h-22.6   l-3.8,12.6c-0.3,1.1-1.5,1.8-2.6,1.7c-1,0-2-0.3-2.9-0.9C552.6,130.1,552.1,129.2,552.1,128.2z M564.6,111h19.3l-9.6-32.2   L564.6,111z"/>
	<path class="st0" d="M621.3,128.6V70.7c0-1.7,1.2-2.5,3.6-2.5c1.1,0,2.2,0.4,3.1,1.1c1,1,1.9,2.2,2.4,3.5l21.5,42V70.7   c0-0.8,0.4-1.5,1.1-1.8c1.6-0.9,3.5-0.9,5.1,0c0.7,0.4,1.1,1.1,1.1,1.8v57.9c0,0.8-0.4,1.5-1.1,1.9c-0.8,0.5-1.6,0.7-2.5,0.7   c-2-0.1-3.8-1.4-4.6-3.3l-22.4-43.3v44c0,0.8-0.4,1.5-1.1,1.9c-1.6,0.9-3.5,0.9-5.1,0C621.7,130.1,621.3,129.4,621.3,128.6z"/>
</g>
<path class="st0" d="M157.2,50.2c-0.6,0.3-0.8,1-0.5,1.6c0,0,0,0,0,0c0.6,1.2,0.4,2.7-0.4,3.8c-0.4,0.5-0.3,1.2,0.1,1.6  c0.2,0.2,0.5,0.3,0.7,0.3c0.3,0,0.7-0.2,0.9-0.4c1.5-1.8,1.7-4.2,0.7-6.3C158.5,50.1,157.8,49.9,157.2,50.2z"/>
<path class="st0" d="M112.7,0.8C58-6.2,7.8,32.5,0.8,87.3s31.7,104.9,86.4,111.9s104.9-31.7,111.9-86.4c0,0,0,0,0,0  C206.2,58,167.5,7.9,112.7,0.8z M133.3,63.2c-1.9,0-3.6,0.8-4.9,2.1l-37.1,37.1l-7.9-7.9C119.9,58,126.5,57.7,133.3,63.2z   M92.8,103.7l37-37c2-2,5.3-2,7.3,0c2,2,2,5.3,0,7.3c-0.1,0.1-0.2,0.2-0.3,0.2l-39.1,34.4L92.8,103.7z M95.5,109.5l-9.2,2  c-0.2,0.1-0.5,0-0.6-0.3c-0.1-0.2-0.1-0.5,0.1-0.6l5.4-5.4L95.5,109.5z M72.2,105.7l9.8-9.8l7.3,7.3l-16.5,3.6  c-0.3,0.1-0.6-0.1-0.7-0.3C72,106.2,72,105.9,72.2,105.7z M41.8,156.2c-0.2,0-0.5-0.2-0.5-0.4c-0.1-0.2,0-0.5,0.2-0.7l7.9-7.9  l10.2,10.2L41.8,156.2z M62,145.7L62,145.7c-0.8,0.4-1.2,1.3-1,2.1l1.7,7.2c0.2,0.5,0,1.1-0.5,1.3c-0.4,0.2-0.9,0-1.2-0.3  l-10.3-10.2l31.3-31.3l15.2-3.3l7.3,7.3C94.1,127.6,79.8,136.8,62,145.7z M106,117.1l-7-7l39.2-34.4c0.4-0.3,0.7-0.6,1-1  C137.9,85.9,122.2,101.7,106,117.1z M136.5,63.3c-6.1-5.8-6.3-15.4-0.6-21.5c5.6-5.9,15-6.3,21.1-0.9l-13.5,13.4  c-0.2,0.2-0.3,0.4-0.3,0.7c0,0.3,0.1,0.5,0.3,0.7l10.4,10.4C148.1,69,141.1,67.9,136.5,63.3z M158,63.3c-0.7,0.7-1.4,1.3-2.2,1.8  L145.6,55l12.8-12.8C163.9,48.3,163.7,57.5,158,63.3z"/>
</svg>